PathFileType	4	(X/Y/Z)	14_2_38_p0_0-235_filt_butterworth.trc
DataRate	CameraRate	NumFrames	NumMarkers	Units	OrigDataRate	OrigDataStartFrame	OrigNumFrames
58.0	58.0	6	27	m	58.0	117	235
Frame#	Time	RHip			RKnee			RAnkle			RBigToe			RSmallToe			RHeel			LHip			LKnee			LAnkle			LBigToe			LSmallToe			LHeel			Neck			Head			Nose			RShoulder			RElbow			RWrist			RThumb			RIndex			RPinky			LShoulder			LElbow			LWrist			LThumb			LIndex			LPinky			
		X1	Y1	Z1	X2	Y2	Z2	X3	Y3	Z3	X4	Y4	Z4	X5	Y5	Z5	X6	Y6	Z6	X7	Y7	Z7	X8	Y8	Z8	X9	Y9	Z9	X10	Y10	Z10	X11	Y11	Z11	X12	Y12	Z12	X13	Y13	Z13	X14	Y14	Z14	X15	Y15	Z15	X16	Y16	Z16	X17	Y17	Z17	X18	Y18	Z18	X19	Y19	Z19	X20	Y20	Z20	X21	Y21	Z21	X22	Y22	Z22	X23	Y23	Z23	X24	Y24	Z24	X25	Y25	Z25	X26	Y26	Z26	X27	Y27	Z27	
117	2.0172413793103448	0.32243439334121693	0.5960089314940231	0.9386326575343061	0.2735813053039899	0.22100101046547754	0.8083450053264111	0.3046014700522547	-0.23187989555396915	0.8842231385645455	0.26229236962108354	-0.21684462445311506	0.6631795551545511	0.32683782186347987	-0.2049947458476416	0.6761086337640578	0.28897684776986104	-0.3217875434607002	0.962704527889037	0.11598382991727132	0.6285268143360887	0.9339452925104615	0.09570656700044561	0.22127830014655897	0.887805697561495	0.09142750357969735	-0.17281461660775432	0.8631900266300137	0.0979984200361454	-0.1902190363841371	0.657122211225607	0.05310902866979791	-0.22793149946639366	0.7238171324698122	0.10500505115512053	-0.25120097956952886	0.9063149018456006	0.30798175063829636	1.0573861501217199	0.7222089565962313	0.3876388861551505	1.3220519601800962	0.5772350423142184	0.33572763587775567	1.1570320295185021	0.5689783034558036	0.46818754733337414	1.013683967115787	0.7530785605474734	0.5912936717164861	0.8123476133165175	0.7564652702564214	0.7769033431820248	0.6329472033766915	0.7857217248073594	0.8954445590733064	0.603703345420412	0.7694317166983333	0.8906727284255769	0.5697470539132605	0.7597868755528343	0.8341307859753506	0.5456970974993685	0.7438733987213649	0.15907829164177895	1.101735616971741	0.7667478919651788	-0.0674267639013561	0.9711777229869649	0.8492368040048541	-0.2881899052739566	0.9006640872463438	0.9507543932190381	-0.37899693264056733	0.935047880848076	0.9488329336890622	-0.40472318636868976	0.8975121849061491	0.9729532980680632	-0.3888999267048662	0.8506203020758761	0.9348979727881975	
118	2.034482758620689	0.3234067455532612	0.5954246951001307	0.9399098520907982	0.2750581145122542	0.2204393116286266	0.8102839190974154	0.30498604058429907	-0.23184089919677467	0.8843137177838426	0.2621253443366557	-0.21918254168312057	0.6662231082813416	0.3256168169988622	-0.20727673936009677	0.6789503548302588	0.289240405016623	-0.3222866731112698	0.9631080395308821	0.11774272749989066	0.6269348809433408	0.9343718027255957	0.09705304286220481	0.2204467741326735	0.8893802520219438	0.09197858221646266	-0.17371439088816	0.8643541053898571	0.09795650611852674	-0.18853547788766953	0.6576427524885468	0.05307856270294074	-0.22789261416638765	0.7237757738249145	0.10543722183803643	-0.25175979215728095	0.9065344207055348	0.30703094156177496	1.0554595074232749	0.7184808969692451	0.383572214232488	1.3203350732864791	0.5764351188025597	0.3346197794594229	1.1580078404576688	0.5655853609544153	0.4669986089645668	1.00825836228528	0.7550960242259012	0.5848952532828406	0.8025436374502732	0.767035927904693	0.7637144043164776	0.6187244303429771	0.7910446486283746	0.8844025968676186	0.5846120385641236	0.7712608533371794	0.8767931183967452	0.5480159560130105	0.766044061033439	0.8156974419368479	0.5282022631152078	0.7461579179569869	0.15883972353985493	1.0959809727688385	0.7656463606019929	-0.06326824774807556	0.9555082255749087	0.8502352440930632	-0.279429626902877	0.8795699831932104	0.9372557011817391	-0.3717095648436758	0.9046370463451171	0.9385277213429007	-0.3990214521960251	0.8698960154889864	0.9612297607571165	-0.37843745438701776	0.8243171601619192	0.9204862636545624	
119	2.0517241379310347	0.3244111023581861	0.5951719786117547	0.9408787690061114	0.27695607214357293	0.21962693965907892	0.8128225657224456	0.3053128441579185	-0.23156528831314166	0.8843680492940071	0.2618957583251137	-0.22164304103991475	0.6693174902429501	0.3246302020669023	-0.2094313825791978	0.6816647679920821	0.2894540913078751	-0.3224501341699963	0.963307889478165	0.11944585367022473	0.6252551769811163	0.9350346832354524	0.09847925218488314	0.21969358567336617	0.8909055994537504	0.09249696983706678	-0.17456967595531747	0.8655792683836143	0.09789559677785013	-0.18737064274163834	0.6578405424459471	0.05303851842076686	-0.22790693053693112	0.7237666823933413	0.10583148608953856	-0.25222408994895856	0.9066121302253309	0.3065264147483515	1.055027478180843	0.7150584395672539	0.38000039858802787	1.3195882678221782	0.5772799041002733	0.33326471479164177	1.1602053549546605	0.5626837253571358	0.465385461821157	1.003680962219935	0.756336859262764	0.5790563464024308	0.7931378085913634	0.7787737517688009	0.7502417299756143	0.6056593654624947	0.7947852685064283	0.8742101408408188	0.5662446280220513	0.7720641078187264	0.8634172891388482	0.5264731404286458	0.7718309401082538	0.796910521705674	0.5105366242235381	0.7479785278045834	0.1587795592637165	1.0910265964903627	0.7653366721146184	-0.05758183743782897	0.9404940955605074	0.8512595105634377	-0.26957418456134485	0.8589476713520833	0.9243442999061864	-0.36308591594390255	0.8752490584601416	0.9300945917098182	-0.390841220164906	0.8439557788186643	0.946386181761218	-0.366879157627067	0.7968149575760028	0.9086692101953979	
120	2.0689655172413794	0.32537224573798934	0.595345599213097	0.9414549073424916	0.27913692529130574	0.2187471086086419	0.8155684166984388	0.30558326013044645	-0.23108255164155908	0.8843835041474803	0.2617066011548361	-0.22368837955912124	0.671503804461848	0.32388746039893584	-0.21110618565209982	0.6837888421574692	0.2895549812103164	-0.32230506836776873	0.9632025898658697	0.1211327665300176	0.6237310104887757	0.9357061153095803	0.09998310397597654	0.21894953985446694	0.8924771150773014	0.09296385329171333	-0.1753752479266778	0.8668261814082125	0.09796197935125533	-0.18656591169432823	0.6576436064298808	0.053003771499174346	-0.2279344560150548	0.7237853518036755	0.10607937866670392	-0.25245329861119076	0.9064335423582492	0.30654632455504593	1.0561253757104017	0.7120918952651016	0.3770068315429955	1.3196689482244637	0.5798116160510531	0.33173234673033625	1.1635822121234098	0.5600014048106834	0.4634537856789761	1.0000024392651192	0.7571612102694152	0.5731466749521711	0.7841605039459381	0.7891199394001309	0.7365348758380201	0.5931102521350163	0.7960026967584264	0.8635235330574158	0.5486033058016079	0.771924454051348	0.8501030348540282	0.5064638703449355	0.7748079449863087	0.7774664433446501	0.4936366974754647	0.7478469482951193	0.1588097097343441	1.0869810313386172	0.7653188095577645	-0.0506129085986151	0.9262091911904607	0.8523234176886019	-0.2596667932076175	0.8374527659415558	0.9138665744704462	-0.35392468636024027	0.8467012449276884	0.9259658622844062	-0.38060295254795984	0.8190213697489549	0.9309401522193939	-0.35514922556082823	0.7669976990245457	0.9024505958442368	
121	2.086206896551724	0.32628157366900135	0.5958638173600211	0.9416097203706046	0.2813920601663017	0.21797014647374488	0.8181788874184028	0.3057861175560992	-0.23046150520243142	0.8843545485124464	0.2616557798460515	-0.22469416517090127	0.6725856972584592	0.3233912301435263	-0.21201712468514125	0.6849647319717598	0.2895264218761947	-0.321928171914248	0.9628086720454281	0.12287213062941807	0.6224993447299916	0.9361188830006781	0.1015718542731651	0.21812184779143978	0.894159010232014	0.09336558462097397	-0.17614978214788557	0.8680556487115894	0.09835876270919597	-0.18579963901679555	0.6571858129432224	0.05296407595635026	-0.22792382287712842	0.72383896267476	0.1061381502558106	-0.25234650521690816	0.9060637841654361	0.3069204440253647	1.0584245686319962	0.7098777450535272	0.3744436998126742	1.3204484061690518	0.5837494925228676	0.33004746145254044	1.167719596199279	0.5574966651683546	0.46137536193424655	0.99706085547996	0.7582250753596459	0.5665566680911153	0.7758180733402233	0.7957351644760267	0.7228525355774309	0.5807135121854645	0.7941680586442509	0.8503912603666918	0.5313943434840815	0.7704178769369312	0.8354586923240943	0.48911821472532657	0.7724772854933335	0.75812714477465	0.47790475583219366	0.7457029293481061	0.1587024183273828	1.08385888631372	0.7648764469754552	-0.04301154859431422	0.913151211482743	0.8533790118298423	-0.2504797256241997	0.8149410813148136	0.9069869568375772	-0.34483180409980807	0.8182673715393001	0.9270418369679008	-0.36907649615238936	0.7942885445436829	0.9173503956119677	-0.34381246669019316	0.7357481671139336	0.902444047023713	
122	2.103448275862069	0.327163192926662	0.59654758771191	0.9413224036879273	0.2836163193547957	0.21727659093646512	0.8207215187947097	0.3059082412591247	-0.2297919886651272	0.884283003247421	0.2617611648171385	-0.22437423604114268	0.6728020823668921	0.3232001873410931	-0.21214857934732434	0.6852176452352777	0.2893802263360951	-0.3213455288638999	0.9621774401369917	0.1246752782648499	0.6215624124499937	0.9360746538320701	0.10327778257251523	0.2171951037426944	0.8958837678138234	0.09371170893280266	-0.17690419024160375	0.8692472711165082	0.0991378387347133	-0.18503712682334483	0.6568092727127387	0.05290445401769224	-0.2278346570690578	0.7239230295735578	0.10606696230168444	-0.2518905309725167	0.9056973069662273	0.307304563527392	1.0614239949898878	0.708807402785149	0.3719469828192351	1.32181936899914	0.588519762803793	0.3283076787064658	1.172063299291289	0.5558409567013513	0.459347631869377	0.994759088735546	0.7597381706729398	0.5588510065428699	0.7688482763318046	0.7975069709764175	0.7093274760669156	0.5685423422104272	0.7899502028968901	0.832426059098524	0.5150789793105357	0.7664240127996321	0.8177906693510224	0.4744670531924353	0.7647015317401632	0.73989563877662	0.4634306939294932	0.7435817132754274	0.15828048181244622	1.081426131178869	0.7636836491771655	-0.0356027675984303	0.9012413420765151	0.8540765798379216	-0.2420375076835683	0.7923356651561513	0.9033889460195761	-0.33615974212101196	0.7889786494702933	0.9321295237999876	-0.357329466179935	0.7688948140631671	0.9069137327550654	-0.33267318571188265	0.7053198199923755	0.9064834381919782	
